<?xml version="1.0" encoding="UTF-8" standalone="no"?>
<svg
   xmlns:dc="http://purl.org/dc/elements/1.1/"
   xmlns:cc="http://creativecommons.org/ns#"
   xmlns:rdf="http://www.w3.org/1999/02/22-rdf-syntax-ns#"
   xmlns:svg="http://www.w3.org/2000/svg"
   xmlns="http://www.w3.org/2000/svg"
   xmlns:sodipodi="http://sodipodi.sourceforge.net/DTD/sodipodi-0.dtd"
   xmlns:inkscape="http://www.inkscape.org/namespaces/inkscape"
   inkscape:version="1.0 (4035a4fb49, 2020-05-01)"
   height="255.33969"
   width="1920"
   sodipodi:docname="banner_icon.svg"
   xml:space="preserve"
   viewBox="0 0 1920 255.3397"
   y="0px"
   x="0px"
   id="Capa_1"
   version="1.1"><metadata
   id="metadata90"><rdf:RDF><cc:Work
       rdf:about=""><dc:format>image/svg+xml</dc:format><dc:type
         rdf:resource="http://purl.org/dc/dcmitype/StillImage" /><dc:title></dc:title></cc:Work></rdf:RDF></metadata><defs
   id="defs88" /><sodipodi:namedview
   inkscape:current-layer="layer1"
   inkscape:window-maximized="1"
   inkscape:window-y="-8"
   inkscape:window-x="-8"
   inkscape:cy="407.15538"
   inkscape:cx="690.47774"
   inkscape:zoom="0.18979416"
   fit-margin-bottom="0"
   fit-margin-right="0"
   fit-margin-left="0"
   fit-margin-top="0"
   showgrid="false"
   id="namedview86"
   inkscape:window-height="705"
   inkscape:window-width="1366"
   inkscape:pageshadow="2"
   inkscape:pageopacity="0"
   guidetolerance="10"
   gridtolerance="10"
   objecttolerance="10"
   borderopacity="1"
   bordercolor="#666666"
   pagecolor="#ffffff"
   inkscape:document-rotation="0"
   units="mm"
   lock-margins="false"
   inkscape:pagecheckerboard="false" />
<style
   id="style2"
   type="text/css">
	.st0{fill:none;stroke:#DADADA;stroke-width:9.1101;stroke-linecap:round;stroke-linejoin:round;stroke-miterlimit:10;}
	.st1{fill:none;stroke:#DADADA;stroke-width:6.6936;stroke-linecap:round;stroke-linejoin:round;stroke-miterlimit:10;}
	.st2{fill:#F4F4F4;stroke:#DADADA;stroke-width:4.4325;stroke-linecap:round;stroke-linejoin:round;stroke-miterlimit:10;}
	.st3{fill:#FF2D00;}
	.st4{font-family:'FoundryContext-Bold';}
	.st5{font-size:59.8692px;}
	.st6{fill:#F4F4F4;}
	.st7{fill:#808080;}
	.st8{fill:#FF461E;}
	.st9{clip-path:url(#SVGID_2_);}
	.st10{clip-path:url(#SVGID_4_);}
	.st11{fill:#F4F4F4;stroke:#DADADA;stroke-width:6.6936;stroke-linecap:round;stroke-linejoin:round;stroke-miterlimit:10;}
	.st12{fill:none;stroke:#FF2D00;stroke-width:5;stroke-miterlimit:10;}
</style>
<g
   inkscape:label="Layer 1"
   id="layer1"
   inkscape:groupmode="layer"><rect
     y="-147.52824"
     x="-173.87257"
     height="1011.6223"
     width="2855.7253"
     id="rect849"
     style="fill:#f4f4f4;fill-opacity:1;stroke:#5e0000;stroke-width:1.00157" /></g><g
   transform="translate(-644.62391,-1154.1853)"
   id="g23">
	<g
   id="XMLID_101_">
		<path
   d="m 1668.32,1302.85 c -2.55,2.55 -5.55,4.62 -8.85,6.1 l -24.75,13.61 c -3.98,1.51 -7.88,-2.39 -6.37,-6.37 l 13.61,-24.75 c 1.48,-3.3 3.54,-6.3 6.1,-8.85 l 96.46,-96.46 c 7.31,-7.31 16.29,-8.38 21.17,-3.5"
   class="st0"
   id="XMLID_103_" />
		<path
   d="m 1535.61,1244.19 71.7,-85.45 c 21.3,34.09 48.75,63.6 80.71,87.19 12.37,9.13 29.64,7.57 40.51,-3.3 l 41.37,-41.36 c 9.4,-9.4 14.22,-20.96 7.91,-27.27 l -4.35,-4.35 c -8.81,-8.81 -23.1,-8.81 -31.91,0 l -38.29,38.29"
   class="st0"
   id="XMLID_108_" />
		<path
   d="m 1668.32,1302.85 37.54,-37.54 c 2.52,-2.52 6.44,-3.04 9.51,-1.22 7.64,4.52 23.14,13.13 42.15,20.71 l -100.84,120.17 c -47.93,-19.36 -90.18,-50.05 -123.29,-89.16"
   class="st0"
   id="XMLID_102_" />
	</g>
	<g
   id="g12">
		<circle
   id="circle8"
   r="44"
   cy="1279.33"
   cx="1506.47"
   class="st1" />
		<polyline
   id="polyline10"
   points="1490.26,1281.65 1499.52,1290.91 1522.68,1267.75   "
   class="st1" />
	</g>
	<g
   id="XMLID_90_">
		<line
   y2="1199.17"
   x2="1527.95"
   y1="1206.17"
   x1="1526.0699"
   class="st2"
   id="XMLID_100_" />
		<line
   y2="1237.84"
   x2="1578.34"
   y1="1241.46"
   x1="1572.0699"
   class="st2"
   id="XMLID_99_" />
		<line
   y2="1317.2"
   x2="1440.87"
   y1="1320.83"
   x1="1434.6"
   class="st2"
   id="XMLID_98_" />
		<line
   y2="1359.5"
   x2="1484.99"
   y1="1352.5"
   x1="1486.87"
   class="st2"
   id="XMLID_97_" />
		<line
   y2="1300.8101"
   x2="1586.63"
   y1="1298.9399"
   x1="1579.63"
   class="st2"
   id="XMLID_96_" />
		<line
   y2="1259.73"
   x2="1433.3101"
   y1="1257.85"
   x1="1426.3101"
   class="st2"
   id="XMLID_94_" />
		<line
   y2="1351.2"
   x2="1547.97"
   y1="1344.9301"
   x1="1544.34"
   class="st2"
   id="XMLID_93_" />
		<line
   y2="1213.73"
   x2="1468.6"
   y1="1207.46"
   x1="1464.97"
   class="st2"
   id="XMLID_92_" />
	</g>
</g>












</svg>
