<svg width="38" height="50" xmlns="http://www.w3.org/2000/svg">
 <style type="text/css">.st0{fill:#3C3C3B;}
	.st1{fill:#EDEDED;}
	.st2{fill:#40D64F;}
	.st3{fill:#FF2D00;}
	.st4{fill:#FF9200;}
	.st5{fill:#75EB81;}
	.st6{fill:#BF2200;}
	.st7{fill:#FFCA38;}
	.st8{fill:#FF5F3D;}
	.st9{fill:#808080;}
	.st10{fill:none;stroke:#808080;stroke-width:0.9868;stroke-miterlimit:10;}
	.st11{fill:#FFFFFF;}
	.st12{fill:none;stroke:#EDEDED;stroke-miterlimit:10;}
	.st13{fill:none;}
	.st14{fill:none;stroke:#C6C6C6;stroke-miterlimit:10;}
	.st15{fill:none;stroke:#575756;stroke-miterlimit:10;}
	.st16{fill:none;stroke:#3C3C3B;stroke-miterlimit:10;}
	.st17{fill:#575756;}
	.st18{fill:#FFFFFF;stroke:#3C3C3B;stroke-miterlimit:10;}
	.st19{fill:none;stroke:#FFFFFF;stroke-width:2;stroke-miterlimit:10;}
	.st20{fill:none;stroke:#40D64F;stroke-width:2.5263;stroke-linecap:round;stroke-linejoin:round;stroke-miterlimit:10;}
	.st21{fill:none;stroke:#3C3C3B;stroke-width:0.9936;stroke-linecap:round;stroke-linejoin:round;stroke-miterlimit:10;}
	.st22{fill:none;stroke:#3C3C3B;stroke-width:1.093;stroke-linecap:round;stroke-linejoin:round;stroke-miterlimit:10;}
	.st23{fill:#C6C6C6;}
	.st24{fill:none;stroke:#FF2D00;stroke-width:0.25;stroke-miterlimit:10;stroke-dasharray:3;}
	.st25{font-family:'FoundryContext-Bold';}
	.st26{font-size:24px;}
	.st27{font-family:'FoundryContext-Regular';}
	.st28{font-size:18px;}
	.st29{fill:none;stroke:#FF5F3D;stroke-miterlimit:10;}
	.st30{fill:none;stroke:#FFCA38;stroke-width:2.5263;stroke-linecap:round;stroke-linejoin:round;stroke-miterlimit:10;}
	.st31{fill:none;stroke:#FFFFFF;stroke-width:2.5263;stroke-linecap:round;stroke-linejoin:round;stroke-miterlimit:10;}
	.st32{fill:none;stroke:#FFFFFF;stroke-miterlimit:10;}
	.st33{clip-path:url(#SVGID_2_);}
	.st34{fill:none;stroke:#40D64F;stroke-width:1.2727;stroke-miterlimit:10;}
	.st35{fill:none;stroke:#40D64F;stroke-width:1.2727;stroke-miterlimit:10;stroke-dasharray:3.4053,6.8107;}
	.st36{fill:none;stroke:#40D64F;stroke-width:1.2727;stroke-miterlimit:10;stroke-dasharray:3.4053,5.108,3.4053,6.8107;}
	.st37{fill:none;stroke:#FFCA38;stroke-width:1.9832;stroke-miterlimit:10;}
	.st38{fill:none;stroke:#40D64F;stroke-width:1.4784;stroke-miterlimit:10;}
	.st39{fill:none;stroke:#40D64F;stroke-width:1.4784;stroke-miterlimit:10;stroke-dasharray:3.1857,6.3713;}
	.st40{fill:none;stroke:#40D64F;stroke-width:1.4784;stroke-miterlimit:10;stroke-dasharray:3.1857,4.7785,3.1857,6.3713;}
	.st41{fill:none;stroke:#3C3C3B;stroke-width:2;stroke-miterlimit:10;}
	.st42{fill:none;stroke:#FFCA38;stroke-width:1.639;stroke-linecap:round;stroke-linejoin:round;stroke-miterlimit:10;}
	.st43{opacity:0.5;fill:#FFFFFF;}
	.st44{fill:none;stroke:#FF2D00;stroke-miterlimit:10;}
	.st45{fill:none;stroke:#FF2D00;stroke-width:0.25;stroke-miterlimit:10;}
	.st46{fill:none;stroke:#FF2D00;stroke-width:0.25;stroke-miterlimit:10;stroke-dasharray:2.9895,2.9895;}
	.st47{fill:none;stroke:#FF2D00;stroke-width:0.25;stroke-miterlimit:10;stroke-dasharray:3.0071,3.0071;}</style>

 <g>
  <title>background</title>
  <rect fill="none" id="canvas_background" height="52" width="40" y="-1" x="-1"/>
 </g>
 <g>
  <title>Layer 1</title>
  <g id="Layer_1">
   <g id="svg_1">
    <path id="svg_2" d="m516.58,680.55l-126,0c-14.91,0 -27,-12.09 -27,-27l0,0c0,-14.91 12.09,-27 27,-27l126,0c14.91,0 27,12.09 27,27l0,0c0,14.91 -12.09,27 -27,27z" class="st7"/>
    <circle id="svg_3" r="27" cy="653.55" cx="516.58" class="st7"/>
    <path id="svg_4" d="m512.58,645.55l7.29,7.29c0.39,0.39 0.39,1.02 0,1.41l-7.29,7.29" class="st19"/>
    <g id="svg_5">
     <text id="svg_6" class="st11 st25 st26" transform="matrix(1,0,0,1,394.6313,660.9365) ">Siguiente</text>
    </g>
   </g>
   <g id="svg_7">
    <path id="svg_8" d="m475.05,760.91l-126,0c-14.91,0 -27,-12.09 -27,-27l0,0c0,-14.91 12.09,-27 27,-27l126,0c14.91,0 27,12.09 27,27l0,0c0,14.92 -12.08,27 -27,27z" class="st4"/>
    <circle id="svg_9" r="27" cy="733.91" cx="475.05" class="st4"/>
    <path id="svg_10" d="m471.05,725.91l7.29,7.29c0.39,0.39 0.39,1.02 0,1.41l-7.29,7.29" class="st19"/>
    <g id="svg_11">
     <text id="svg_12" class="st11 st25 st26" transform="matrix(1,0,0,1,353.1025,741.3061) ">Siguiente</text>
    </g>
   </g>
   <g id="svg_13">
    <path id="svg_14" d="m556.04,606.73l-142,0c-10.49,0 -19,-8.51 -19,-19l0,0c0,-10.49 8.51,-19 19,-19l142,0c10.49,0 19,8.51 19,19l0,0c0,10.5 -8.5,19 -19,19z" class="st2"/>
    <text id="svg_15" class="st11 st27 st28" transform="matrix(1,0,0,1,455.1555,593.2751) ">Acepto</text>
   </g>
   <g id="svg_19">
    <path id="svg_20" d="m193.61,776.14l-126,0c-14.91,0 -27,-12.09 -27,-27l0,0c0,-14.91 12.09,-27 27,-27l126,0c14.91,0 27,12.09 27,27l0,0c0,14.91 -12.09,27 -27,27z" class="st23"/>
    <circle id="svg_21" r="27" cy="749.14" cx="193.61" class="st23"/>
    <path id="svg_22" d="m189.61,741.14l7.29,7.29c0.39,0.39 0.39,1.02 0,1.41l-7.29,7.29" class="st19"/>
    <g id="svg_23">
     <text id="svg_24" class="st11 st25 st26" transform="matrix(1,0,0,1,71.6613,756.5317) ">Siguiente</text>
    </g>
   </g>
   <path d="m7.5,21.41c1.42,0.54 3.04,1 5.78,1c6.76,0 6.76,-2.79 13.51,-2.79c3.35,0 5.04,0.69 6.72,1.38l-2.89,-14.86c-1.68,-0.69 -3.36,-1.38 -6.72,-1.38c-6.76,0 -6.76,2.79 -13.51,2.79c-3.42,0 -5.11,-0.72 -6.82,-1.42c-1.14,-0.48 -2.32,-0.63 -2.64,-2.1c-0.22,-1.01 0.18,-1.71 0.81,-1.74c0.61,-0.04 1.17,1.05 1.28,1.91c0.14,1.09 0.29,2.64 0.34,3.67l2.94,33.61" class="st42" id="XMLID_150_"/>
   <g id="svg_25">
    <path id="svg_26" d="m227.94,700.31l-192,0c-2.21,0 -4,-1.79 -4,-4l0,-30c0,-2.21 1.79,-4 4,-4l192,0c2.21,0 4,1.79 4,4l0,30c0,2.21 -1.79,4 -4,4z" class="st2"/>
    <g id="svg_27">
     <text id="svg_28" class="st11 st25 st28" transform="matrix(1,0,0,1,54.6338,686.8222) ">Adjuntar cédula</text>
    </g>
    <polyline id="svg_29" points="218.84,682.15 215.47,685.52 207.05,677.1   " class="st31"/>
    <rect id="svg_30" height="38" width="38" class="st13" y="662.31" x="193.94"/>
   </g>
   <g id="svg_31">
    <path id="svg_32" d="m227.94,654.01l-192,0c-2.21,0 -4,-1.79 -4,-4l0,-30c0,-2.21 1.79,-4 4,-4l192,0c2.21,0 4,1.79 4,4l0,30c0,2.21 -1.79,4 -4,4z" class="st9"/>
    <g id="svg_33">
     <text id="svg_34" class="st11 st25 st28" transform="matrix(1,0,0,1,64.5268,640.5251) ">Adjuntar cédula</text>
    </g>
   </g>
  </g>
  <g id="medidas"/>
 </g>
</svg>