<svg width="32" height="36" xmlns="http://www.w3.org/2000/svg">
	 <style type="text/css">.st0{fill:#EDEDED;}
		.st1{fill:#FFFFFF;}
		.st2{fill:none;stroke:#706F6F;stroke-miterlimit:10;}
		.st3{fill:#40D64F;}
		.st4{fill:#808080;}
		.st5{fill:#FF2D00;}
		.st6{fill:none;stroke:#9D9D9C;stroke-linecap:round;stroke-linejoin:round;}
		.st7{fill:none;stroke:#9D9D9C;stroke-linecap:round;stroke-linejoin:round;stroke-dasharray:0,5.0137;}
		.st8{fill:#9D9D9C;}
		.st9{fill:none;stroke:#FFFFFF;stroke-miterlimit:10;}
		.st10{fill:#FFBF0F;}
		.st11{fill:#1D1D1B;}
		.st12{fill:#FF9200;}
		.st13{fill:#75EB81;}
		.st14{fill:#BF2200;}
		.st15{fill:#FFCA38;}
		.st16{fill:#FF5F3D;}
		.st17{fill:none;stroke:#808080;stroke-width:0.9868;stroke-miterlimit:10;}
		.st18{fill:none;stroke:#C6C6C6;stroke-miterlimit:10;}
		.st19{fill:none;stroke:#575756;stroke-miterlimit:10;}
		.st20{fill:#575756;}
		.st21{fill:none;stroke:#808080;stroke-width:0.9936;stroke-linecap:round;stroke-linejoin:round;stroke-miterlimit:10;}
		.st22{fill:none;stroke:#3C3C3B;stroke-miterlimit:10;}
		.st23{fill:none;}
		.st24{fill:none;stroke:#40D64F;stroke-width:4;stroke-linecap:round;stroke-linejoin:round;stroke-miterlimit:10;}
		.st25{fill:none;stroke:#3C3C3B;stroke-width:3;stroke-linecap:round;stroke-linejoin:round;stroke-miterlimit:10;}
		.st26{fill:none;stroke:#EDEDED;stroke-miterlimit:10;}
		.st27{fill:#C6C6C6;}
		.st28{fill:none;stroke:#FFFFFF;stroke-width:2;stroke-miterlimit:10;}
		.st29{fill:#FFFFFF;stroke:#3C3C3B;stroke-miterlimit:10;}
		.st30{fill:none;stroke:#40D64F;stroke-width:2.5263;stroke-linecap:round;stroke-linejoin:round;stroke-miterlimit:10;}
		.st31{fill:none;stroke:#3C3C3B;stroke-width:0.9936;stroke-linecap:round;stroke-linejoin:round;stroke-miterlimit:10;}
		.st32{fill:none;stroke:#3C3C3B;stroke-width:1.093;stroke-linecap:round;stroke-linejoin:round;stroke-miterlimit:10;}
		.st33{fill:none;stroke:#FF2D00;stroke-width:0.25;stroke-miterlimit:10;stroke-dasharray:3;}
		.st34{font-family:'FoundryContext-Bold';}
		.st35{font-size:24px;}
		.st36{font-family:'FoundryContext-Regular';}
		.st37{font-size:18px;}
		.st38{fill:none;stroke:#FF2D00;stroke-miterlimit:10;}
		.st39{fill:none;stroke:#FF2D00;stroke-width:0.25;stroke-miterlimit:10;}
		.st40{fill:none;stroke:#FF2D00;stroke-width:0.25;stroke-miterlimit:10;stroke-dasharray:2.9895,2.9895;}
		.st41{opacity:0.5;fill:#FFFFFF;}
		.st42{fill:none;stroke:#FF2D00;stroke-width:0.25;stroke-miterlimit:10;stroke-dasharray:3.0071,3.0071;}</style>

	 <g>
	  <title>background</title>
	  <rect fill="none" id="canvas_background" height="38" width="34" y="-1" x="-1"/>
	 </g>
	 <g>
	  <title>Layer 1</title>
	  <g id="Layer_1">
	   <g id="svg_1">
		<path id="svg_2" d="m260.79,188.12l-142,0c-10.49,0 -19,-8.51 -19,-19l0,0c0,-10.49 8.51,-19 19,-19l142,0c10.49,0 19,8.51 19,19l0,0c0,10.49 -8.5,19 -19,19z" class="st29"/>
		<g id="svg_3">
		 <line id="svg_4" y2="175.12" x2="260.79" y1="163.12" x1="260.79" class="st22"/>
		 <line id="svg_5" y2="169.12" x2="254.79" y1="169.12" x1="266.79" class="st22"/>
		</g>
	   </g>
	   <g id="svg_6">
		<circle id="svg_7" r="19" cy="235.56" cx="182.37" class="st22"/>
		<g id="svg_8">
		 <line id="svg_9" y2="241.47" x2="183.37" y1="229.64" x1="181.36" class="st23"/>
		 <line id="svg_10" y2="236.57" x2="176.45" y1="234.55" x1="188.28" class="st22"/>
		</g>
	   </g>
	   <g id="svg_11">
		<path id="svg_12" d="m437.83,545.2l-126,0c-14.91,0 -27,-12.09 -27,-27l0,0c0,-14.91 12.09,-27 27,-27l126,0c14.91,0 27,12.09 27,27l0,0c0,14.91 -12.09,27 -27,27z" class="st15"/>
		<circle id="svg_13" r="27" cy="518.2" cx="437.83" class="st15"/>
		<path id="svg_14" d="m433.83,510.2l7.29,7.29c0.39,0.39 0.39,1.02 0,1.41l-7.29,7.29" class="st28"/>
		<g id="svg_15">
		 <text id="svg_16" class="st1 st34 st35" transform="matrix(1,0,0,1,315.8799,525.5944) ">Siguiente</text>
		</g>
	   </g>
	   <g id="svg_17">
		<path id="svg_18" d="m437.83,675.91l-126,0c-14.91,0 -27,-12.09 -27,-27l0,0c0,-14.91 12.09,-27 27,-27l126,0c14.91,0 27,12.09 27,27l0,0c0,14.91 -12.09,27 -27,27z" class="st12"/>
		<circle id="svg_19" r="27" cy="648.91" cx="437.83" class="st12"/>
		<path id="svg_20" d="m433.83,640.91l7.29,7.29c0.39,0.39 0.39,1.02 0,1.41l-7.29,7.29" class="st28"/>
		<g id="svg_21">
		 <text id="svg_22" class="st1 st34 st35" transform="matrix(1,0,0,1,315.8799,656.3022) ">Siguiente</text>
		</g>
	   </g>
	   <g id="svg_23">
		<path id="svg_24" d="m445.83,399.66l-142,0c-10.49,0 -19,-8.51 -19,-19l0,0c0,-10.49 8.51,-19 19,-19l142,0c10.49,0 19,8.51 19,19l0,0c0,10.49 -8.51,19 -19,19z" class="st3"/>
		<text id="svg_25" class="st1 st36 st37" transform="matrix(1,0,0,1,344.9426,386.2014) ">Acepto</text>
	   </g>
	   <g id="XMLID_157_">
		<path d="m24.32,28.3c-0.61,0.28 -1.4,0.47 -2.46,0.47c-1.28,0 -6.3,-0.45 -12.14,-6.3c-4.94,-4.94 -6.74,-8.55 -6.28,-12.59c0.28,-2.4 2.24,-4.1 2.24,-4.1c0.39,-0.38 0.92,-0.6 1.46,-0.6c0.51,-0.01 1,0.19 1.37,0.55l3.62,3.61c0.77,0.8 0.74,2.06 -0.05,2.83l-0.57,0.57c-0.74,0.74 -0.85,1.88 -0.29,2.76c0.56,0.88 1.37,2.01 2.41,3.06c0.92,0.94 2.15,1.8 3.11,2.41c0.87,0.55 2,0.42 2.73,-0.31l0.55,-0.55c0.39,-0.38 0.91,-0.6 1.46,-0.59c0.51,-0.01 1,0.19 1.37,0.54l3.61,3.62c0.76,0.79 0.68,2 -0.05,2.83" class="st32" id="XMLID_159_"/>
		<path d="m24.32,28.3c2.04,-0.67 2.92,1.38 1.39,2.66c-0.8,0.67 -3.75,1.91 -3.75,0.76c0,-1.2 4.27,-2.69 4.27,-1.09c0,4.03 -4.28,4.48 -4.28,3.55" class="st32" id="XMLID_158_"/>
	   </g>
	   <g id="svg_29">
		<path id="svg_30" d="m231.37,360.2l-172,0c-2.21,0 -4,-1.79 -4,-4l0,-30c0,-2.21 1.79,-4 4,-4l172,0c2.21,0 4,1.79 4,4l0,30c0,2.21 -1.79,4 -4,4z" class="st4"/>
		<g id="svg_31">
		 <text id="svg_32" class="st1 st34 st37" transform="matrix(1,0,0,1,78.0566,346.7448) ">Adjuntar cédula</text>
		</g>
	   </g>
	   <g id="svg_33">
		<path id="svg_34" d="m231.37,450.2l-126,0c-14.91,0 -27,-12.09 -27,-27l0,0c0,-14.91 12.09,-27 27,-27l126,0c14.91,0 27,12.09 27,27l0,0c0,14.91 -12.09,27 -27,27z" class="st27"/>
		<circle id="svg_35" r="27" cy="423.2" cx="231.37" class="st27"/>
		<path id="svg_36" d="m227.37,415.2l7.29,7.29c0.39,0.39 0.39,1.02 0,1.41l-7.29,7.29" class="st28"/>
		<g id="svg_37">
		 <text id="svg_38" class="st1 st34 st35" transform="matrix(1,0,0,1,109.415,430.5925) ">Siguiente</text>
		</g>
	   </g>
	  </g>
	  <g id="medidas"/>
	 </g>
</svg>