<svg width="36" height="30" xmlns="http://www.w3.org/2000/svg">
	 <style type="text/css">.st0{fill:#EDEDED;}
		.st1{fill:#FFFFFF;}
		.st2{fill:none;stroke:#706F6F;stroke-miterlimit:10;}
		.st3{fill:#40D64F;}
		.st4{fill:#808080;}
		.st5{fill:#FF2D00;}
		.st6{fill:none;stroke:#9D9D9C;stroke-linecap:round;stroke-linejoin:round;}
		.st7{fill:none;stroke:#9D9D9C;stroke-linecap:round;stroke-linejoin:round;stroke-dasharray:0,5.0137;}
		.st8{fill:#9D9D9C;}
		.st9{fill:none;stroke:#FFFFFF;stroke-miterlimit:10;}
		.st10{fill:#FFBF0F;}
		.st11{fill:#1D1D1B;}
		.st12{fill:#FF9200;}
		.st13{fill:#75EB81;}
		.st14{fill:#BF2200;}
		.st15{fill:#FFCA38;}
		.st16{fill:#FF5F3D;}
		.st17{fill:none;stroke:#808080;stroke-width:0.9868;stroke-miterlimit:10;}
		.st18{fill:none;stroke:#C6C6C6;stroke-miterlimit:10;}
		.st19{fill:none;stroke:#575756;stroke-miterlimit:10;}
		.st20{fill:#575756;}
		.st21{fill:none;stroke:#808080;stroke-width:0.9936;stroke-linecap:round;stroke-linejoin:round;stroke-miterlimit:10;}
		.st22{fill:none;stroke:#3C3C3B;stroke-miterlimit:10;}
		.st23{fill:none;}
		.st24{fill:none;stroke:#40D64F;stroke-width:4;stroke-linecap:round;stroke-linejoin:round;stroke-miterlimit:10;}
		.st25{fill:none;stroke:#3C3C3B;stroke-width:3;stroke-linecap:round;stroke-linejoin:round;stroke-miterlimit:10;}
		.st26{fill:none;stroke:#EDEDED;stroke-miterlimit:10;}
		.st27{fill:#C6C6C6;}
		.st28{fill:none;stroke:#FFFFFF;stroke-width:2;stroke-miterlimit:10;}
		.st29{fill:#FFFFFF;stroke:#3C3C3B;stroke-miterlimit:10;}
		.st30{fill:none;stroke:#40D64F;stroke-width:2.5263;stroke-linecap:round;stroke-linejoin:round;stroke-miterlimit:10;}
		.st31{fill:none;stroke:#3C3C3B;stroke-width:0.9936;stroke-linecap:round;stroke-linejoin:round;stroke-miterlimit:10;}
		.st32{fill:none;stroke:#3C3C3B;stroke-width:1.093;stroke-linecap:round;stroke-linejoin:round;stroke-miterlimit:10;}
		.st33{fill:none;stroke:#FF2D00;stroke-width:0.25;stroke-miterlimit:10;stroke-dasharray:3;}
		.st34{font-family:'FoundryContext-Bold';}
		.st35{font-size:24px;}
		.st36{font-family:'FoundryContext-Regular';}
		.st37{font-size:18px;}
		.st38{fill:none;stroke:#FF2D00;stroke-miterlimit:10;}
		.st39{fill:none;stroke:#FF2D00;stroke-width:0.25;stroke-miterlimit:10;}
		.st40{fill:none;stroke:#FF2D00;stroke-width:0.25;stroke-miterlimit:10;stroke-dasharray:2.9895,2.9895;}
		.st41{opacity:0.5;fill:#FFFFFF;}
		.st42{fill:none;stroke:#FF2D00;stroke-width:0.25;stroke-miterlimit:10;stroke-dasharray:3.0071,3.0071;}</style>

	 <g>
	  <title>background</title>
	  <rect fill="none" id="canvas_background" height="32" width="38" y="-1" x="-1"/>
	 </g>
	 <g>
	  <title>Layer 1</title>
	  <g id="Layer_1">
	   <g id="XMLID_166_">
		<path d="m15.75,14.94l-1.28,-7.28c0.2,1.15 0.61,1.44 1.2,1.72c0.35,0.16 0.59,0.12 0.38,-0.08c-0.29,-0.28 -0.73,-0.49 -1.37,-0.37c-1.11,0.2 -1.55,0.85 -1.41,1.68c0.15,0.83 1.19,0.93 1.98,0.96c0.79,0.02 1.7,0.09 1.9,1.22c0.17,0.99 -0.8,1.58 -1.54,1.71c-0.74,0.13 -1.7,-0.22 -1.91,-1.02" class="st31" id="XMLID_168_"/>
		<path d="m1.88,24.68l0,0c-0.03,0.45 0.32,0.84 0.77,0.86c9.91,0.48 19.8,-1.25 28.95,-5.09c0.47,-0.2 0.66,-0.75 0.42,-1.2c-0.17,-0.32 -0.32,-0.57 -0.58,-1.16c-9.2,3.89 -19.15,5.67 -29.12,5.19c-0.49,-0.02 -0.86,-0.47 -0.81,-0.96c0.05,-0.41 0.1,-0.8 0.13,-1.32c9.95,0.52 19.89,-1.21 29.08,-5.05c0.48,-0.2 0.67,-0.78 0.4,-1.23l-0.33,-0.56c-0.17,-0.39 0.01,-0.83 0.4,-1l0,0c-1.53,-3.52 -3.06,-7.04 -4.59,-10.56c-0.19,-0.43 -0.68,-0.63 -1.12,-0.45c-7.37,3.07 -15.32,4.47 -23.29,4.11c-0.47,-0.02 -0.87,0.33 -0.9,0.8c-0.22,3.54 -0.43,7.08 -0.65,10.63c-0.03,0.48 0.34,0.89 0.81,0.91c9.18,0.44 18.35,-1.02 26.92,-4.3" class="st31" id="XMLID_167_"/>
	   </g>
	  </g>
	  <g id="medidas"/>
	 </g>
</svg>