<svg width="30" height="30" xmlns="http://www.w3.org/2000/svg">
	 <style type="text/css">.st0{fill:#EDEDED;}
		.st1{fill:#FFFFFF;}
		.st2{fill:none;stroke:#706F6F;stroke-miterlimit:10;}
		.st3{fill:#40D64F;}
		.st4{fill:#808080;}
		.st5{fill:#FF2D00;}
		.st6{fill:none;stroke:#9D9D9C;stroke-linecap:round;stroke-linejoin:round;}
		.st7{fill:none;stroke:#9D9D9C;stroke-linecap:round;stroke-linejoin:round;stroke-dasharray:0,5.0137;}
		.st8{fill:#9D9D9C;}
		.st9{fill:none;stroke:#FFFFFF;stroke-miterlimit:10;}
		.st10{fill:#FFBF0F;}
		.st11{fill:#1D1D1B;}
		.st12{fill:#FF9200;}
		.st13{fill:#75EB81;}
		.st14{fill:#BF2200;}
		.st15{fill:#FFCA38;}
		.st16{fill:#FF5F3D;}
		.st17{fill:none;stroke:#808080;stroke-width:0.9868;stroke-miterlimit:10;}
		.st18{fill:none;stroke:#C6C6C6;stroke-miterlimit:10;}
		.st19{fill:none;stroke:#575756;stroke-miterlimit:10;}
		.st20{fill:#575756;}
		.st21{fill:none;stroke:#808080;stroke-width:0.9936;stroke-linecap:round;stroke-linejoin:round;stroke-miterlimit:10;}
		.st22{fill:none;stroke:#3C3C3B;stroke-miterlimit:10;}
		.st23{fill:none;}
		.st24{fill:none;stroke:#40D64F;stroke-width:4;stroke-linecap:round;stroke-linejoin:round;stroke-miterlimit:10;}
		.st25{fill:none;stroke:#3C3C3B;stroke-width:3;stroke-linecap:round;stroke-linejoin:round;stroke-miterlimit:10;}
		.st26{fill:none;stroke:#EDEDED;stroke-miterlimit:10;}
		.st27{fill:#C6C6C6;}
		.st28{fill:none;stroke:#FFFFFF;stroke-width:2;stroke-miterlimit:10;}
		.st29{fill:#FFFFFF;stroke:#3C3C3B;stroke-miterlimit:10;}
		.st30{fill:none;stroke:#40D64F;stroke-width:2.5263;stroke-linecap:round;stroke-linejoin:round;stroke-miterlimit:10;}
		.st31{fill:none;stroke:#3C3C3B;stroke-width:0.9936;stroke-linecap:round;stroke-linejoin:round;stroke-miterlimit:10;}
		.st32{fill:none;stroke:#3C3C3B;stroke-width:1.093;stroke-linecap:round;stroke-linejoin:round;stroke-miterlimit:10;}
		.st33{fill:none;stroke:#FF2D00;stroke-width:0.25;stroke-miterlimit:10;stroke-dasharray:3;}
		.st34{font-family:'FoundryContext-Bold';}
		.st35{font-size:24px;}
		.st36{font-family:'FoundryContext-Regular';}
		.st37{font-size:18px;}
		.st38{fill:none;stroke:#FF2D00;stroke-miterlimit:10;}
		.st39{fill:none;stroke:#FF2D00;stroke-width:0.25;stroke-miterlimit:10;}
		.st40{fill:none;stroke:#FF2D00;stroke-width:0.25;stroke-miterlimit:10;stroke-dasharray:2.9895,2.9895;}
		.st41{opacity:0.5;fill:#FFFFFF;}
		.st42{fill:none;stroke:#FF2D00;stroke-width:0.25;stroke-miterlimit:10;stroke-dasharray:3.0071,3.0071;}</style>

	 <g>
	  <title>background</title>
	  <rect fill="none" id="canvas_background" height="32" width="32" y="-1" x="-1"/>
	 </g>
	 <g>
	  <title>Layer 1</title>
	  <g id="Layer_1">
	   <g id="svg_17">
		<path id="svg_18" d="m437.83,675.91l-126,0c-14.91,0 -27,-12.09 -27,-27l0,0c0,-14.91 12.09,-27 27,-27l126,0c14.91,0 27,12.09 27,27l0,0c0,14.91 -12.09,27 -27,27z" class="st12"/>
		<circle id="svg_19" r="27" cy="648.91" cx="437.83" class="st12"/>
		<path id="svg_20" d="m433.83,640.91l7.29,7.29c0.39,0.39 0.39,1.02 0,1.41l-7.29,7.29" class="st28"/>
		<g id="svg_21">
		 <text id="svg_22" class="st1 st34 st35" transform="matrix(1,0,0,1,315.8799,656.3022) ">Siguiente</text>
		</g>
	   </g>
	   <path d="m17.26,19.73c-0.46,-0.21 -1.01,-0.12 -1.38,0.24l-5.4,5.37c-0.41,0.41 -1.11,0.07 -1.04,-0.51l0.91,-7.56c0.06,-0.51 -0.2,-1 -0.66,-1.23l-6.77,-3.47c-0.52,-0.26 -0.41,-1.03 0.16,-1.14l7.47,-1.47c0.5,-0.1 0.89,-0.5 0.97,-1.01l1.21,-7.51c0.09,-0.57 0.86,-0.71 1.14,-0.2l3.71,6.65c0.25,0.45 0.75,0.69 1.26,0.61l7.52,-1.17c0.57,-0.09 0.94,0.6 0.54,1.02l-5.17,5.58c-0.35,0.38 -0.43,0.93 -0.19,1.38l3.44,6.79c0.26,0.52 -0.28,1.07 -0.8,0.83l-4.17,-1.93" class="st31" id="XMLID_169_"/>
	  </g>
	  <g id="medidas"/>
	 </g>
</svg>