<svg width="38" height="35" xmlns="http://www.w3.org/2000/svg">
	 <style type="text/css">.st0{fill:#EDEDED;}
		.st1{fill:#FFFFFF;}
		.st2{fill:none;stroke:#706F6F;stroke-miterlimit:10;}
		.st3{fill:#40D64F;}
		.st4{fill:#808080;}
		.st5{fill:#FF2D00;}
		.st6{fill:none;stroke:#9D9D9C;stroke-linecap:round;stroke-linejoin:round;}
		.st7{fill:none;stroke:#9D9D9C;stroke-linecap:round;stroke-linejoin:round;stroke-dasharray:0,5.0137;}
		.st8{fill:#9D9D9C;}
		.st9{fill:none;stroke:#FFFFFF;stroke-miterlimit:10;}
		.st10{fill:#FFBF0F;}
		.st11{fill:#1D1D1B;}
		.st12{fill:#FF9200;}
		.st13{fill:#75EB81;}
		.st14{fill:#BF2200;}
		.st15{fill:#FFCA38;}
		.st16{fill:#FF5F3D;}
		.st17{fill:none;stroke:#808080;stroke-width:0.9868;stroke-miterlimit:10;}
		.st18{fill:none;stroke:#C6C6C6;stroke-miterlimit:10;}
		.st19{fill:none;stroke:#575756;stroke-miterlimit:10;}
		.st20{fill:#575756;}
		.st21{fill:none;stroke:#808080;stroke-width:0.9936;stroke-linecap:round;stroke-linejoin:round;stroke-miterlimit:10;}
		.st22{fill:none;stroke:#3C3C3B;stroke-miterlimit:10;}
		.st23{fill:none;}
		.st24{fill:none;stroke:#40D64F;stroke-width:4;stroke-linecap:round;stroke-linejoin:round;stroke-miterlimit:10;}
		.st25{fill:none;stroke:#3C3C3B;stroke-width:3;stroke-linecap:round;stroke-linejoin:round;stroke-miterlimit:10;}
		.st26{fill:none;stroke:#EDEDED;stroke-miterlimit:10;}
		.st27{fill:#C6C6C6;}
		.st28{fill:none;stroke:#FFFFFF;stroke-width:2;stroke-miterlimit:10;}
		.st29{fill:#FFFFFF;stroke:#3C3C3B;stroke-miterlimit:10;}
		.st30{fill:none;stroke:#40D64F;stroke-width:2.5263;stroke-linecap:round;stroke-linejoin:round;stroke-miterlimit:10;}
		.st31{fill:none;stroke:#3C3C3B;stroke-width:0.9936;stroke-linecap:round;stroke-linejoin:round;stroke-miterlimit:10;}
		.st32{fill:none;stroke:#3C3C3B;stroke-width:1.093;stroke-linecap:round;stroke-linejoin:round;stroke-miterlimit:10;}
		.st33{fill:none;stroke:#FF2D00;stroke-width:0.25;stroke-miterlimit:10;stroke-dasharray:3;}
		.st34{font-family:'FoundryContext-Bold';}
		.st35{font-size:24px;}
		.st36{font-family:'FoundryContext-Regular';}
		.st37{font-size:18px;}
		.st38{fill:none;stroke:#FF2D00;stroke-miterlimit:10;}
		.st39{fill:none;stroke:#FF2D00;stroke-width:0.25;stroke-miterlimit:10;}
		.st40{fill:none;stroke:#FF2D00;stroke-width:0.25;stroke-miterlimit:10;stroke-dasharray:2.9895,2.9895;}
		.st41{opacity:0.5;fill:#FFFFFF;}
		.st42{fill:none;stroke:#FF2D00;stroke-width:0.25;stroke-miterlimit:10;stroke-dasharray:3.0071,3.0071;}</style>

	 <g>
	  <title>background</title>
	  <rect fill="none" id="canvas_background" height="37" width="40" y="-1" x="-1"/>
	 </g>
	 <g>
	  <title>Layer 1</title>
	  <g id="Layer_1">
	   <g id="XMLID_160_">
		<path d="m21.14,18.74c-0.31,0.31 -0.67,0.55 -1.06,0.73l-2.97,1.63c-0.48,0.18 -0.95,-0.29 -0.76,-0.76l1.63,-2.97c0.18,-0.4 0.42,-0.76 0.73,-1.06l11.57,-11.57c0.88,-0.88 1.95,-1 2.54,-0.42" class="st31" id="XMLID_162_"/>
		<path d="m21.14,18.74l4.5,-4.5c0.3,-0.3 0.77,-0.36 1.14,-0.15c0.92,0.54 2.78,1.58 5.06,2.48l-12.1,14.42c-7.45,-3.01 -13.76,-8.31 -18.02,-15.12l12.1,-14.42c2.56,4.09 5.85,7.63 9.68,10.46c1.48,1.1 3.56,0.91 4.86,-0.4l4.96,-4.96c1.13,-1.13 1.71,-2.51 0.95,-3.27l-0.52,-0.52c-1.06,-1.06 -2.77,-1.06 -3.83,0l-4.59,4.59" class="st31" id="XMLID_161_"/>
	   </g>
	  </g>
	  <g id="medidas"/>
	 </g>
</svg>