<svg width="32" height="30" xmlns="http://www.w3.org/2000/svg">
	 <style type="text/css">.st0{fill:#EDEDED;}
		.st1{fill:#FFFFFF;}
		.st2{fill:none;stroke:#706F6F;stroke-miterlimit:10;}
		.st3{fill:#40D64F;}
		.st4{fill:#808080;}
		.st5{fill:#FF2D00;}
		.st6{fill:none;stroke:#9D9D9C;stroke-linecap:round;stroke-linejoin:round;}
		.st7{fill:none;stroke:#9D9D9C;stroke-linecap:round;stroke-linejoin:round;stroke-dasharray:0,5.0137;}
		.st8{fill:#9D9D9C;}
		.st9{fill:none;stroke:#FFFFFF;stroke-miterlimit:10;}
		.st10{fill:#FFBF0F;}
		.st11{fill:#1D1D1B;}
		.st12{fill:#FF9200;}
		.st13{fill:#75EB81;}
		.st14{fill:#BF2200;}
		.st15{fill:#FFCA38;}
		.st16{fill:#FF5F3D;}
		.st17{fill:none;stroke:#808080;stroke-width:0.9868;stroke-miterlimit:10;}
		.st18{fill:none;stroke:#C6C6C6;stroke-miterlimit:10;}
		.st19{fill:none;stroke:#575756;stroke-miterlimit:10;}
		.st20{fill:#575756;}
		.st21{fill:none;stroke:#808080;stroke-width:0.9936;stroke-linecap:round;stroke-linejoin:round;stroke-miterlimit:10;}
		.st22{fill:none;stroke:#3C3C3B;stroke-miterlimit:10;}
		.st23{fill:none;}
		.st24{fill:none;stroke:#40D64F;stroke-width:4;stroke-linecap:round;stroke-linejoin:round;stroke-miterlimit:10;}
		.st25{fill:none;stroke:#3C3C3B;stroke-width:3;stroke-linecap:round;stroke-linejoin:round;stroke-miterlimit:10;}
		.st26{fill:none;stroke:#EDEDED;stroke-miterlimit:10;}
		.st27{fill:#C6C6C6;}
		.st28{fill:none;stroke:#FFFFFF;stroke-width:2;stroke-miterlimit:10;}
		.st29{fill:#FFFFFF;stroke:#3C3C3B;stroke-miterlimit:10;}
		.st30{fill:none;stroke:#40D64F;stroke-width:2.5263;stroke-linecap:round;stroke-linejoin:round;stroke-miterlimit:10;}
		.st31{fill:none;stroke:#3C3C3B;stroke-width:0.9936;stroke-linecap:round;stroke-linejoin:round;stroke-miterlimit:10;}
		.st32{fill:none;stroke:#3C3C3B;stroke-width:1.093;stroke-linecap:round;stroke-linejoin:round;stroke-miterlimit:10;}
		.st33{fill:none;stroke:#FF2D00;stroke-width:0.25;stroke-miterlimit:10;stroke-dasharray:3;}
		.st34{font-family:'FoundryContext-Bold';}
		.st35{font-size:24px;}
		.st36{font-family:'FoundryContext-Regular';}
		.st37{font-size:18px;}
		.st38{fill:none;stroke:#FF2D00;stroke-miterlimit:10;}
		.st39{fill:none;stroke:#FF2D00;stroke-width:0.25;stroke-miterlimit:10;}
		.st40{fill:none;stroke:#FF2D00;stroke-width:0.25;stroke-miterlimit:10;stroke-dasharray:2.9895,2.9895;}
		.st41{opacity:0.5;fill:#FFFFFF;}
		.st42{fill:none;stroke:#FF2D00;stroke-width:0.25;stroke-miterlimit:10;stroke-dasharray:3.0071,3.0071;}</style>

	 <g>
	  <title>background</title>
	  <rect fill="none" id="canvas_background" height="32" width="34" y="-1" x="-1"/>
	 </g>
	 <g>
	  <title>Layer 1</title>
	  <g id="Layer_1">
	   <g id="svg_11">
		<path id="svg_12" d="m437.83,545.2l-126,0c-14.91,0 -27,-12.09 -27,-27l0,0c0,-14.91 12.09,-27 27,-27l126,0c14.91,0 27,12.09 27,27l0,0c0,14.91 -12.09,27 -27,27z" class="st15"/>
		<circle id="svg_13" r="27" cy="518.2" cx="437.83" class="st15"/>
		<path id="svg_14" d="m433.83,510.2l7.29,7.29c0.39,0.39 0.39,1.02 0,1.41l-7.29,7.29" class="st28"/>
		<g id="svg_15">
		 <text id="svg_16" class="st1 st34 st35" transform="matrix(1,0,0,1,315.8799,525.5944) ">Siguiente</text>
		</g>
	   </g>
	   <g id="svg_17">
		<path id="svg_18" d="m437.83,675.91l-126,0c-14.91,0 -27,-12.09 -27,-27l0,0c0,-14.91 12.09,-27 27,-27l126,0c14.91,0 27,12.09 27,27l0,0c0,14.91 -12.09,27 -27,27z" class="st12"/>
		<circle id="svg_19" r="27" cy="648.91" cx="437.83" class="st12"/>
		<path id="svg_20" d="m433.83,640.91l7.29,7.29c0.39,0.39 0.39,1.02 0,1.41l-7.29,7.29" class="st28"/>
		<g id="svg_21">
		 <text id="svg_22" class="st1 st34 st35" transform="matrix(1,0,0,1,315.8799,656.3022) ">Siguiente</text>
		</g>
	   </g>
	   <g id="svg_23">
		<path id="svg_24" d="m445.83,399.66l-142,0c-10.49,0 -19,-8.51 -19,-19l0,0c0,-10.49 8.51,-19 19,-19l142,0c10.49,0 19,8.51 19,19l0,0c0,10.49 -8.51,19 -19,19z" class="st3"/>
		<text id="svg_25" class="st1 st36 st37" transform="matrix(1,0,0,1,344.9426,386.2014) ">Acepto</text>
	   </g>
	   <g id="XMLID_163_">
		<path d="m17.61,12.35c2.02,-0.52 4.03,0.53 4.03,3.27l0,8.9c0,0.27 -0.22,0.5 -0.5,0.5l-1.46,0c-0.27,0 -0.5,-0.22 -0.5,-0.5l0,-7.48c0,-0.27 -0.22,-0.49 -0.49,-0.49l-4.3,0c-0.27,0 -0.5,0.22 -0.5,0.5l0,7.47c0,0.27 -0.22,0.5 -0.5,0.5l-1.46,0c-0.27,0 -0.5,-0.22 -0.5,-0.5l0,-5.05c0,-0.27 -0.22,-0.49 -0.49,-0.49l-4.3,0c-0.27,0 -0.49,0.22 -0.49,0.49l0,5.9c0,0.73 0.59,1.32 1.32,1.32l18.15,0c0.73,0 1.32,-0.59 1.32,-1.32l0,-11.56c0,-0.27 -0.22,-0.49 -0.49,-0.49l-2.24,0" class="st31" id="XMLID_165_"/>
		<path d="m22.47,10.31c0.37,-0.19 0.73,-0.39 1.07,-0.59c0.35,-0.2 0.67,-0.41 1,-0.61c0.31,-0.21 0.62,-0.41 0.91,-0.62c0.36,-0.27 0.72,-0.51 1.02,-0.78c0,0 0.01,0 0.01,0c0.4,0.41 0.78,0.85 1.13,1.31l0.15,0.19c0.21,0.27 0.64,0.14 0.66,-0.2l0.01,-0.24c0.14,-2.33 0.64,-4.77 1.48,-7.21c0.11,-0.32 -0.22,-0.61 -0.52,-0.45l-0.29,0.16c-2.2,1.19 -4.44,2.06 -6.64,2.59l-0.15,0.04c-0.33,0.08 -0.39,0.52 -0.09,0.68l0.21,0.11c0.49,0.26 0.97,0.55 1.44,0.86c-0.14,0.13 -0.29,0.26 -0.43,0.39c-0.23,0.2 -0.48,0.4 -0.73,0.62c-0.26,0.2 -0.53,0.42 -0.82,0.62c-0.29,0.21 -0.58,0.42 -0.9,0.62c-0.31,0.21 -0.64,0.41 -0.97,0.62c-0.67,0.4 -1.38,0.8 -2.13,1.16c-0.37,0.19 -0.75,0.36 -1.14,0.54c-0.39,0.17 -0.77,0.34 -1.17,0.5c-0.79,0.32 -1.59,0.61 -2.39,0.87c-0.8,0.27 -1.6,0.5 -2.38,0.7c-0.78,0.21 -1.54,0.38 -2.27,0.54c-0.73,0.15 -1.42,0.28 -2.06,0.39c-0.64,0.11 -1.23,0.19 -1.76,0.26c-0.52,0.07 -0.98,0.12 -1.36,0.16c-0.37,0.04 -0.68,0.06 -0.88,0.08c-0.2,0.02 -0.31,0.03 -0.31,0.03c-0.21,0.02 -0.38,0.19 -0.38,0.41c0,0.23 0.18,0.42 0.41,0.42c0,0 0.11,0 0.32,0.01c0.21,0 0.51,0.01 0.9,0.01c0.39,0 0.86,0 1.4,-0.02c0.54,-0.01 1.15,-0.04 1.82,-0.08c0.67,-0.04 1.39,-0.1 2.15,-0.18c0.76,-0.08 1.56,-0.18 2.39,-0.31c0.83,-0.13 1.68,-0.28 2.55,-0.48c0.86,-0.19 1.74,-0.4 2.61,-0.66c0.44,-0.12 0.87,-0.26 1.3,-0.4" class="st31" id="XMLID_164_"/>
	   </g>
	   <g id="svg_29">
		<path id="svg_30" d="m231.37,360.2l-172,0c-2.21,0 -4,-1.79 -4,-4l0,-30c0,-2.21 1.79,-4 4,-4l172,0c2.21,0 4,1.79 4,4l0,30c0,2.21 -1.79,4 -4,4z" class="st4"/>
		<g id="svg_31">
		 <text id="svg_32" class="st1 st34 st37" transform="matrix(1,0,0,1,78.0566,346.7448) ">Adjuntar cédula</text>
		</g>
	   </g>
	   <g id="svg_33">
		<path id="svg_34" d="m231.37,450.2l-126,0c-14.91,0 -27,-12.09 -27,-27l0,0c0,-14.91 12.09,-27 27,-27l126,0c14.91,0 27,12.09 27,27l0,0c0,14.91 -12.09,27 -27,27z" class="st27"/>
		<circle id="svg_35" r="27" cy="423.2" cx="231.37" class="st27"/>
		<path id="svg_36" d="m227.37,415.2l7.29,7.29c0.39,0.39 0.39,1.02 0,1.41l-7.29,7.29" class="st28"/>
		<g id="svg_37">
		 <text id="svg_38" class="st1 st34 st35" transform="matrix(1,0,0,1,109.415,430.5925) ">Siguiente</text>
		</g>
	   </g>
	  </g>
	  <g id="medidas"/>
	 </g>
</svg>