<svg xmlns="http://www.w3.org/2000/svg" viewBox="0 0 139.26 109.11"><defs><style>.cls-1,.cls-2{fill:none;}.cls-1,.cls-2,.cls-3{stroke:#40d64f;stroke-width:3px;}.cls-1,.cls-3{stroke-miterlimit:10;}.cls-2{stroke-linecap:round;stroke-linejoin:round;}.cls-3{fill:#fff;}</style></defs><g id="Capa_2" data-name="Capa 2"><g id="Layer_1" data-name="Layer 1"><rect class="cls-1" x="1.5" y="1.5" width="56.29" height="106.11" rx="5.39"/><line class="cls-2" x1="24.23" y1="14" x2="35.06" y2="14"/><circle class="cls-3" cx="91.79" cy="101.12" r="6.49"/><path class="cls-3" d="M51.81,67.14A6,6,0,0,1,47.57,56.9a62.55,62.55,0,0,1,88.44,0,6,6,0,0,1-8.48,8.48,50.55,50.55,0,0,0-71.48,0A6,6,0,0,1,51.81,67.14Z"/><path class="cls-3" d="M112.66,86.25a6,6,0,0,1-4.24-1.75,23.53,23.53,0,0,0-33.25,0A6,6,0,0,1,66.69,76a35.54,35.54,0,0,1,50.2,0,6,6,0,0,1-4.23,10.23Z"/></g></g></svg>