<svg width="158" height="102" xmlns="http://www.w3.org/2000/svg">
 <style type="text/css">.st0{fill:#3C3C3B;}
	.st1{fill:#EDEDED;}
	.st2{fill:#40D64F;}
	.st3{fill:#FF2D00;}
	.st4{fill:#FF9200;}
	.st5{fill:#75EB81;}
	.st6{fill:#BF2200;}
	.st7{fill:#FFCA38;}
	.st8{fill:#FF5F3D;}
	.st9{fill:#808080;}
	.st10{fill:none;stroke:#808080;stroke-width:0.9868;stroke-miterlimit:10;}
	.st11{fill:#FFFFFF;}
	.st12{fill:none;stroke:#EDEDED;stroke-miterlimit:10;}
	.st13{fill:none;}
	.st14{fill:none;stroke:#C6C6C6;stroke-miterlimit:10;}
	.st15{fill:none;stroke:#575756;stroke-miterlimit:10;}
	.st16{fill:none;stroke:#3C3C3B;stroke-miterlimit:10;}
	.st17{fill:#575756;}
	.st18{fill:#FFFFFF;stroke:#3C3C3B;stroke-miterlimit:10;}
	.st19{fill:none;stroke:#FFFFFF;stroke-width:2;stroke-miterlimit:10;}
	.st20{fill:none;stroke:#40D64F;stroke-width:2.5263;stroke-linecap:round;stroke-linejoin:round;stroke-miterlimit:10;}
	.st21{fill:none;stroke:#3C3C3B;stroke-width:0.9936;stroke-linecap:round;stroke-linejoin:round;stroke-miterlimit:10;}
	.st22{fill:none;stroke:#3C3C3B;stroke-width:1.093;stroke-linecap:round;stroke-linejoin:round;stroke-miterlimit:10;}
	.st23{fill:#C6C6C6;}
	.st24{fill:none;stroke:#FF2D00;stroke-width:0.25;stroke-miterlimit:10;stroke-dasharray:3;}
	.st25{font-family:'FoundryContext-Bold';}
	.st26{font-size:24px;}
	.st27{font-family:'FoundryContext-Regular';}
	.st28{font-size:18px;}
	.st29{fill:none;stroke:#FF5F3D;stroke-miterlimit:10;}
	.st30{fill:none;stroke:#FFCA38;stroke-width:2.5263;stroke-linecap:round;stroke-linejoin:round;stroke-miterlimit:10;}
	.st31{fill:none;stroke:#FFFFFF;stroke-width:2.5263;stroke-linecap:round;stroke-linejoin:round;stroke-miterlimit:10;}
	.st32{fill:none;stroke:#FFFFFF;stroke-miterlimit:10;}
	.st33{clip-path:url(#SVGID_2_);}
	.st34{fill:none;stroke:#40D64F;stroke-width:1.2727;stroke-miterlimit:10;}
	.st35{fill:none;stroke:#40D64F;stroke-width:1.2727;stroke-miterlimit:10;stroke-dasharray:3.4053,6.8107;}
	.st36{fill:none;stroke:#40D64F;stroke-width:1.2727;stroke-miterlimit:10;stroke-dasharray:3.4053,5.108,3.4053,6.8107;}
	.st37{fill:none;stroke:#FFCA38;stroke-width:1.9832;stroke-miterlimit:10;}
	.st38{fill:none;stroke:#40D64F;stroke-width:1.4784;stroke-miterlimit:10;}
	.st39{fill:none;stroke:#40D64F;stroke-width:1.4784;stroke-miterlimit:10;stroke-dasharray:3.1857,6.3713;}
	.st40{fill:none;stroke:#40D64F;stroke-width:1.4784;stroke-miterlimit:10;stroke-dasharray:3.1857,4.7785,3.1857,6.3713;}
	.st41{fill:none;stroke:#3C3C3B;stroke-width:2;stroke-miterlimit:10;}
	.st42{fill:none;stroke:#FFCA38;stroke-width:1.639;stroke-linecap:round;stroke-linejoin:round;stroke-miterlimit:10;}
	.st43{opacity:0.5;fill:#FFFFFF;}
	.st44{fill:none;stroke:#FF2D00;stroke-miterlimit:10;}
	.st45{fill:none;stroke:#FF2D00;stroke-width:0.25;stroke-miterlimit:10;}
	.st46{fill:none;stroke:#FF2D00;stroke-width:0.25;stroke-miterlimit:10;stroke-dasharray:2.9895,2.9895;}
	.st47{fill:none;stroke:#FF2D00;stroke-width:0.25;stroke-miterlimit:10;stroke-dasharray:3.0071,3.0071;}</style>

 <g>
  <title>background</title>
  <rect fill="none" id="canvas_background" height="104" width="160" y="-1" x="-1"/>
 </g>
 <g>
  <title>Layer 1</title>
  <g id="Layer_1">
   <g id="svg_35">
    <path id="svg_36" d="m37.73,49.72c0.46,-0.16 0.93,-0.29 1.41,-0.41l-0.31,-1.24c-0.51,0.13 -1.02,0.27 -1.51,0.44l0.41,1.21z" class="st2"/>
    <path id="svg_37" d="m30.73,53.97c0.83,-0.76 1.7,-1.45 2.59,-2.05l-0.71,-1.06c-0.95,0.64 -1.87,1.37 -2.74,2.17l0.86,0.94z" class="st2"/>
    <path id="svg_38" d="m23.67,61.37l1.13,0.59c0.53,-1.01 1.09,-1.98 1.68,-2.89l-1.07,-0.7c-0.61,0.94 -1.19,1.95 -1.74,3z" class="st2"/>
    <path id="svg_39" d="m22.77,66.55l-1.19,-0.44c-0.39,1.06 -0.76,2.16 -1.08,3.28l1.22,0.36c0.32,-1.09 0.67,-2.17 1.05,-3.2z" class="st2"/>
    <path id="svg_40" d="m31.69,84.6l1.06,1.67c-2.12,1.35 -3.96,2.69 -5.35,4.66c2.55,1.72 6.35,1.25 9.9,-2.09c4.06,-3.81 6.73,-10.34 4.25,-12.99c-2.48,-2.64 -9.17,-0.39 -13.23,3.42c-3.79,3.56 -4.34,7.6 -2.37,10.27c1.55,-2.08 3.53,-3.53 5.74,-4.94z" class="st3"/>
    <path id="svg_41" d="m14.51,82.65l1.2,-1.58c1.92,1.46 3.67,2.96 5.1,4.96c2.9,-3.15 2.93,-8.43 -1.15,-13.81c-4.52,-5.96 -12.89,-10.46 -16.78,-7.52c-3.88,2.95 -1.81,12.22 2.71,18.18c0.11,0.14 0.22,0.27 0.33,0.41l0.47,0.12c-0.03,0.12 -0.05,0.24 -0.08,0.36c4.21,4.95 9.31,5.91 12.97,3.54c-1.3,-1.87 -2.93,-3.26 -4.77,-4.66zm-6.82,-3.8l-1.41,-0.44c0.32,-1.03 0.66,-2.05 1.02,-3.05l1.39,0.5c-0.36,0.98 -0.69,1.98 -1,2.99zm3.35,-8.84l-1.35,-0.61c0.44,-0.97 0.91,-1.95 1.4,-2.9l1.32,0.67c-0.47,0.93 -0.93,1.88 -1.37,2.84z" class="st3"/>
    <path id="svg_42" d="m27.4,90.93c1.39,-1.97 3.23,-3.31 5.35,-4.66l-1.06,-1.67c-2.21,1.41 -4.19,2.86 -5.74,4.94c-0.81,1.1 -1.51,2.36 -2.05,3.91c-0.67,-3.2 -1.74,-5.54 -3.09,-7.42c-1.43,-2 -3.18,-3.49 -5.1,-4.96l-1.2,1.58c1.83,1.4 3.47,2.79 4.78,4.66c1.89,2.69 3.11,6.41 3.34,12.58l2.09,0c0.27,-4.16 1.23,-6.91 2.68,-8.96z" class="st7"/>
    <path id="svg_43" d="m41.85,43.33l-0.08,1.48c0.46,0.03 0.92,0.08 1.39,0.14l0.26,-1.46c-0.53,-0.07 -1.05,-0.13 -1.57,-0.16z" class="st2"/>
    <path id="svg_44" d="m34.18,45.8c0.99,-0.32 2,-0.56 2.99,-0.73l-0.25,-1.46c-1.06,0.18 -2.14,0.44 -3.19,0.78l0.45,1.41z" class="st2"/>
    <path id="svg_45" d="m14.71,63.04c0.55,-0.9 1.12,-1.79 1.71,-2.64l-1.22,-0.84c-0.6,0.88 -1.19,1.79 -1.75,2.71l1.26,0.77z" class="st2"/>
    <path id="svg_46" d="m27.8,47.13c-0.9,0.55 -1.81,1.17 -2.69,1.83l0.89,1.18c0.84,-0.63 1.71,-1.22 2.57,-1.75l-0.77,-1.26z" class="st2"/>
    <path id="svg_47" d="m21.41,52.13c-0.75,0.73 -1.51,1.52 -2.24,2.34l1.11,0.98c0.71,-0.79 1.43,-1.56 2.16,-2.26l-1.03,-1.06z" class="st2"/>
    <path id="svg_48" d="m9.7,69.4l1.35,0.61c0.43,-0.95 0.89,-1.91 1.37,-2.84l-1.32,-0.67c-0.49,0.95 -0.96,1.92 -1.4,2.9z" class="st2"/>
    <path id="svg_49" d="m5.93,83.29l-0.96,-0.24c-0.26,1.03 -0.5,2.07 -0.72,3.13l1.45,0.31c0.19,-0.92 0.41,-1.82 0.63,-2.72c0.03,-0.12 0.05,-0.24 0.08,-0.36l-0.48,-0.12z" class="st2"/>
    <path id="svg_50" d="m6.27,78.41l1.41,0.44c0.32,-1.01 0.65,-2.01 1,-2.99l-1.39,-0.5c-0.35,1 -0.69,2.02 -1.02,3.05z" class="st2"/>
    <path id="svg_51" d="m3.14,92.53c-0.08,0.59 -0.16,1.18 -0.23,1.78l1.47,0.17c0.07,-0.58 0.14,-1.17 0.22,-1.75l-1.46,-0.2z" class="st2"/>
    <path id="svg_52" d="m135.14,10.18l-7.21,-10.29l-17.72,0l-29.96,20.98c-4.45,-6.36 -6.14,-13.83 -5.33,-20.98l-11.79,0c-0.78,9.49 1.63,19.3 7.51,27.71l11.91,17l-30.52,-2.48l-2.45,-8.45c-0.68,-2.34 -4.05,-2.16 -4.47,0.24l-1.69,9.58l-0.26,1.46l-2.27,12.89c-0.42,2.4 2.68,3.72 4.12,1.76l5.19,-7.1l46.89,12.87l7.8,11.13l51.46,-36.03l-13,-18.56c3.33,-6.83 4.76,-14.45 4.15,-22.02l-11.78,0c0.38,3.45 0.19,6.93 -0.58,10.29z" class="st9"/>
   </g>
  </g>
  <g id="medidas"/>
 </g>
</svg>